<svg width="321" height="321" viewBox="0 0 321 321" fill="none" xmlns="http://www.w3.org/2000/svg">
<rect width="321" height="321" rx="160.5" fill="#BCA080" fill-opacity="0.21"/>
<g clip-path="url(#clip0_74_359)">
<path fill-rule="evenodd" clip-rule="evenodd" d="M135.767 94H185.596C189.389 94 192.826 95.5527 195.322 98.0609C197.818 100.569 199.364 104.022 199.364 107.833V213.591C199.364 217.402 197.818 220.855 195.322 223.363C192.826 225.872 189.389 227.424 185.596 227.424H135.767C131.974 227.424 128.538 225.872 126.042 223.363C123.545 220.855 122 217.402 122 213.591V107.833C122 104.022 123.545 100.569 126.042 98.0609C128.538 95.5527 131.985 94 135.767 94ZM160.676 210.377C163.789 210.377 166.317 212.918 166.317 216.045C166.317 219.172 163.789 221.713 160.676 221.713C157.564 221.713 155.035 219.172 155.035 216.045C155.046 212.918 157.564 210.377 160.676 210.377ZM125.955 206.034H195.419V115.39H125.955V206.034Z" fill="#CBBCB1"/>
</g>
<path fill-rule="evenodd" clip-rule="evenodd" d="M173.598 154.287C173.068 154.881 172.45 155.411 171.756 155.842C171.672 155.906 171.555 155.914 171.459 155.85C170.436 155.186 169.573 154.387 168.898 153.518C167.965 152.324 167.377 151 167.176 149.725C166.971 148.431 167.162 147.187 167.793 146.174C168.044 145.777 168.362 145.411 168.749 145.097C169.639 144.375 170.654 143.992 171.669 144C172.643 144.008 173.607 144.378 174.439 145.152C174.733 145.424 174.978 145.733 175.18 146.071C175.857 147.212 176.004 148.665 175.705 150.139C175.411 151.596 174.682 153.076 173.598 154.287ZM152.498 169.56C151.968 170.154 151.35 170.685 150.656 171.115C150.572 171.179 150.455 171.187 150.359 171.123C149.336 170.457 148.473 169.66 147.798 168.791C146.868 167.6 146.28 166.276 146.078 164.998C145.874 163.705 146.065 162.461 146.696 161.45C146.944 161.05 147.262 160.687 147.651 160.373C148.541 159.651 149.557 159.268 150.569 159.276C151.543 159.284 152.507 159.654 153.339 160.428C153.633 160.7 153.878 161.009 154.08 161.347C154.757 162.488 154.904 163.941 154.605 165.415C154.311 166.87 153.582 168.35 152.498 169.56ZM150.645 172.609C151.873 172.609 152.909 173.447 153.236 174.591H169.557C170.363 174.591 171.097 174.255 171.631 173.711C172.164 173.167 172.493 172.42 172.493 171.595C172.493 170.773 172.164 170.024 171.631 169.48C171.097 168.935 170.365 168.599 169.557 168.599H163.847C162.565 168.599 161.401 168.066 160.557 167.206C159.713 166.345 159.191 165.157 159.191 163.849C159.191 162.541 159.713 161.353 160.557 160.492C161.401 159.631 162.565 159.098 163.847 159.098H169.01C169.364 157.999 170.379 157.205 171.574 157.205C173.065 157.205 174.273 158.438 174.273 159.959C174.273 161.481 173.065 162.713 171.574 162.713C170.39 162.713 169.385 161.936 169.021 160.856H163.847C163.042 160.856 162.307 161.192 161.773 161.736C161.24 162.28 160.911 163.027 160.911 163.852C160.911 164.674 161.24 165.423 161.773 165.967C162.301 166.506 163.028 166.842 163.828 166.847H169.56C170.841 166.847 172.006 167.381 172.85 168.241C173.694 169.102 174.216 170.29 174.216 171.598C174.216 172.906 173.694 174.094 172.85 174.955C172.006 175.815 170.841 176.348 169.56 176.348H153.168C152.779 177.384 151.796 178.117 150.645 178.117C149.154 178.117 147.945 176.884 147.945 175.363C147.945 173.841 149.154 172.609 150.645 172.609ZM150.376 161.575C151.579 161.575 152.553 162.569 152.553 163.796C152.553 165.023 151.579 166.017 150.376 166.017C149.173 166.017 148.198 165.023 148.198 163.796C148.198 162.569 149.173 161.575 150.376 161.575ZM171.476 146.299C172.679 146.299 173.653 147.293 173.653 148.52C173.653 149.747 172.679 150.741 171.476 150.741C170.273 150.741 169.298 149.747 169.298 148.52C169.298 147.293 170.273 146.299 171.476 146.299Z" fill="#CBBCB1"/>
<defs>
<clipPath id="clip0_74_359">
<rect width="77.3636" height="133.424" fill="white" transform="translate(122 94)"/>
</clipPath>
</defs>
</svg>
