<svg width="321" height="321" viewBox="0 0 321 321" fill="none" xmlns="http://www.w3.org/2000/svg">
<rect width="321" height="321" rx="160.5" fill="#BCA080" fill-opacity="0.21"/>
<g clip-path="url(#clip0_74_358)">
<path fill-rule="evenodd" clip-rule="evenodd" d="M138.279 101H182.721C186.104 101 189.169 102.385 191.395 104.622C193.622 106.859 195 109.939 195 113.338V207.662C195 211.061 193.622 214.141 191.395 216.378C189.169 218.615 186.104 220 182.721 220H138.279C134.896 220 131.831 218.615 129.605 216.378C127.378 214.141 126 211.061 126 207.662V113.338C126 109.939 127.378 106.859 129.605 104.622C131.831 102.385 134.906 101 138.279 101ZM160.495 204.796C163.271 204.796 165.526 207.062 165.526 209.851C165.526 212.64 163.271 214.906 160.495 214.906C157.719 214.906 155.464 212.64 155.464 209.851C155.474 207.062 157.719 204.796 160.495 204.796ZM129.528 200.922H191.482V120.078H129.528V200.922Z" fill="#CBBCB1"/>
<g clip-path="url(#clip1_74_358)">
<path d="M148.993 147H157.788C158.051 147.001 158.303 147.107 158.489 147.294C158.675 147.482 158.78 147.736 158.782 148.001V156.815C158.782 157.081 158.677 157.335 158.491 157.523C158.304 157.711 158.052 157.816 157.788 157.816H148.993C148.863 157.816 148.734 157.79 148.613 157.74C148.493 157.689 148.384 157.615 148.292 157.522L148.273 157.503C148.098 157.317 148 157.071 148 156.815V148.001C148.001 147.736 148.106 147.482 148.292 147.294C148.478 147.107 148.73 147.001 148.993 147ZM166.941 160.217C167.681 160.215 168.413 160.36 169.097 160.643H169.112C170.396 161.184 171.437 162.183 172.033 163.45C172.629 164.717 172.739 166.162 172.342 167.506C172.207 167.963 172.015 168.401 171.77 168.809L173.951 171.208C173.975 171.234 173.994 171.265 174.006 171.298C174.019 171.332 174.024 171.367 174.023 171.403C174.022 171.439 174.013 171.474 173.998 171.506C173.984 171.539 173.962 171.568 173.936 171.592L172.333 173.064C172.281 173.113 172.212 173.138 172.141 173.136C172.07 173.133 172.003 173.102 171.954 173.049L169.866 170.734C169.462 170.983 169.028 171.18 168.574 171.319C168.044 171.479 167.494 171.56 166.941 171.56C166.203 171.562 165.471 171.417 164.788 171.133H164.773C163.397 170.553 162.305 169.448 161.736 168.06C161.166 166.671 161.165 165.112 161.734 163.723V163.708C162.162 162.672 162.886 161.788 163.813 161.167C164.739 160.546 165.828 160.215 166.941 160.217ZM170.118 162.69C169.7 162.269 169.204 161.935 168.659 161.706H168.646C167.826 161.367 166.924 161.28 166.055 161.456C165.185 161.632 164.387 162.064 163.76 162.696L163.746 162.711C163.334 163.129 163.008 163.624 162.784 164.168V164.181C162.563 164.727 162.449 165.311 162.45 165.901C162.451 166.646 162.634 167.378 162.983 168.034C163.332 168.691 163.836 169.25 164.45 169.664C165.064 170.078 165.77 170.333 166.505 170.406C167.24 170.48 167.982 170.371 168.665 170.088C169.21 169.858 169.706 169.524 170.124 169.104L170.139 169.089C170.551 168.671 170.878 168.176 171.101 167.632V167.619C171.55 166.513 171.55 165.274 171.101 164.168C170.873 163.618 170.541 163.118 170.122 162.696L170.118 162.69ZM148.993 160.486H157.788C158.052 160.487 158.304 160.593 158.49 160.781C158.676 160.969 158.781 161.223 158.782 161.488V170.31C158.782 170.441 158.756 170.571 158.707 170.693C158.657 170.814 158.584 170.925 158.491 171.018C158.399 171.111 158.289 171.184 158.169 171.235C158.048 171.285 157.919 171.311 157.788 171.31H148.993C148.73 171.31 148.477 171.205 148.291 171.017C148.105 170.829 148 170.575 148 170.31V161.488C148.001 161.223 148.105 160.969 148.291 160.781C148.477 160.593 148.73 160.487 148.993 160.486ZM162.566 147H171.361C171.624 147.001 171.876 147.107 172.062 147.294C172.248 147.482 172.353 147.736 172.354 148.001V156.815C172.353 157.081 172.248 157.334 172.062 157.522C171.876 157.709 171.624 157.815 171.361 157.816H162.566C162.303 157.815 162.051 157.709 161.865 157.522C161.679 157.334 161.574 157.081 161.573 156.815V148.001C161.573 147.736 161.677 147.482 161.863 147.294L161.884 147.275C162.068 147.099 162.312 147 162.566 147Z" fill="#CBBCB1"/>
</g>
</g>
<defs>
<clipPath id="clip0_74_358">
<rect width="69" height="119" fill="white" transform="translate(126 101)"/>
</clipPath>
<clipPath id="clip1_74_358">
<rect width="26.0232" height="26.1475" fill="white" transform="translate(148 147)"/>
</clipPath>
</defs>
</svg>
