<svg width="321" height="321" viewBox="0 0 321 321" fill="none" xmlns="http://www.w3.org/2000/svg">
<rect width="321" height="321" rx="160.5" fill="#BCA080" fill-opacity="0.21"/>
<path d="M164.032 144.281C164.16 144.119 164.342 144.027 164.533 144.005C164.722 143.983 164.923 144.034 165.082 144.161C165.245 144.288 165.338 144.469 165.36 144.659C165.383 144.847 165.331 145.047 165.204 145.206C164.837 145.666 164.722 146.168 164.731 146.689C164.741 147.229 164.888 147.811 165.035 148.392C165.226 149.151 165.418 149.917 165.402 150.701C165.386 151.499 165.156 152.303 164.492 153.106V153.109C164.361 153.268 164.179 153.357 163.987 153.376C163.796 153.395 163.598 153.341 163.438 153.211H163.435C163.275 153.081 163.186 152.9 163.167 152.709C163.147 152.519 163.202 152.322 163.333 152.163C164.182 151.133 163.879 149.933 163.582 148.751C163.205 147.261 162.834 145.784 164.032 144.281ZM177.794 171.715L175.262 177.201C175.201 177.335 175.102 177.443 174.987 177.516C174.879 177.586 174.754 177.627 174.623 177.633C174.611 177.636 174.598 177.636 174.585 177.636H146.546C146.384 177.636 146.23 177.582 146.106 177.493C145.978 177.401 145.882 177.271 145.834 177.119L143.65 171.715L143.516 171.709C142.775 171.661 142.146 171.315 141.699 170.803C141.259 170.295 141 169.618 141 168.91C141 168.853 141.003 168.789 141.006 168.723C141.032 168.332 141.093 167.976 141.185 167.655C141.428 166.801 141.891 166.191 142.494 165.806C143.091 165.422 143.823 165.266 144.608 165.314C144.905 165.333 145.209 165.381 145.515 165.457C146.524 163.106 147.811 161.13 149.296 159.529C150.902 157.792 152.738 156.493 154.689 155.635C155.605 155.231 156.547 154.926 157.502 154.717C158.463 154.507 159.443 154.396 160.43 154.383C161.41 154.371 162.394 154.456 163.368 154.637C164.335 154.818 165.293 155.098 166.229 155.476C168.288 156.302 170.249 157.598 171.989 159.358C173.595 160.981 175.013 163.001 176.147 165.419C176.801 165.235 177.481 165.178 178.107 165.34C178.695 165.489 179.228 165.832 179.637 166.432C180.154 167.188 180.339 168.249 180.195 169.237C180.058 170.187 179.617 171.077 178.877 171.585C178.813 171.629 178.746 171.661 178.675 171.683C178.615 171.702 178.554 171.712 178.49 171.715C178.477 171.718 178.465 171.718 178.452 171.718H177.794V171.715ZM174.652 165.965C173.602 163.758 172.302 161.915 170.84 160.441C169.259 158.846 167.49 157.677 165.635 156.934C164.795 156.597 163.936 156.346 163.071 156.181C162.199 156.016 161.318 155.94 160.446 155.952C159.574 155.965 158.703 156.064 157.84 156.254C156.985 156.442 156.142 156.715 155.324 157.077C153.587 157.843 151.949 158.996 150.506 160.543C149.171 161.972 148.002 163.735 147.073 165.835L147.227 165.921L147.539 166.102C148.044 166.401 148.552 166.696 149.047 166.775C149.522 166.852 150.014 166.725 150.535 166.2C150.864 165.87 151.192 165.6 151.547 165.409C151.911 165.216 152.3 165.104 152.738 165.095C153.143 165.089 153.574 165.174 154.044 165.378C154.5 165.575 155.002 165.876 155.561 166.308C155.72 166.432 155.915 166.531 156.126 166.601C156.346 166.674 156.586 166.718 156.825 166.728C157.049 166.737 157.266 166.715 157.46 166.664C157.636 166.617 157.796 166.547 157.923 166.445C158.15 166.267 158.38 166.096 158.613 165.94C158.849 165.781 159.092 165.635 159.344 165.511C159.616 165.378 159.897 165.27 160.184 165.2C160.475 165.13 160.772 165.095 161.081 165.111C162.407 165.174 162.937 165.772 163.441 166.356C163.451 166.366 163.46 166.375 163.47 166.388C163.744 166.705 164.016 167.01 164.568 167.01C165.347 167.014 165.83 166.566 166.286 166.146L166.289 166.143C166.832 165.644 167.35 165.168 168.109 165.035C168.86 164.904 169.821 165.117 171.223 166.003C172.155 166.591 172.826 166.721 173.359 166.632C173.87 166.547 174.272 166.251 174.652 165.965ZM156.867 144.307C156.988 144.142 157.167 144.04 157.355 144.011L157.374 144.008C157.556 143.986 157.751 144.027 157.911 144.145C158.077 144.266 158.179 144.443 158.208 144.631L158.211 144.65C158.233 144.831 158.192 145.025 158.074 145.184C157.256 146.295 157.524 147.468 157.793 148.633L157.796 148.649C157.955 149.351 158.115 150.05 158.105 150.775C158.096 151.518 157.914 152.274 157.384 153.055C157.269 153.227 157.093 153.335 156.905 153.37C156.716 153.405 156.515 153.37 156.346 153.255C156.174 153.141 156.065 152.966 156.03 152.779C155.995 152.592 156.03 152.391 156.145 152.223C156.493 151.708 156.608 151.184 156.602 150.651C156.595 150.104 156.467 149.536 156.336 148.967L156.333 148.951C155.988 147.461 155.65 145.962 156.867 144.307ZM156.598 158.364C156.739 158.214 156.927 158.135 157.119 158.128C157.31 158.122 157.505 158.189 157.655 158.325C157.805 158.465 157.885 158.653 157.892 158.843C157.898 159.034 157.831 159.228 157.694 159.377L155.65 161.562C155.509 161.712 155.321 161.791 155.129 161.798C154.938 161.804 154.743 161.74 154.593 161.601C154.443 161.461 154.363 161.273 154.357 161.083C154.35 160.892 154.414 160.698 154.555 160.549L156.598 158.364ZM164.003 159.377C163.863 159.228 163.796 159.034 163.805 158.843C163.812 158.653 163.891 158.465 164.041 158.325C164.192 158.186 164.386 158.119 164.578 158.128C164.769 158.135 164.958 158.214 165.098 158.364L167.142 160.549C167.282 160.698 167.35 160.892 167.34 161.083C167.334 161.273 167.254 161.461 167.104 161.601C166.954 161.74 166.759 161.807 166.567 161.798C166.376 161.791 166.187 161.712 166.047 161.562L164.003 159.377ZM160.031 159.374V159.352C160.037 159.155 160.12 158.977 160.254 158.85C160.389 158.716 160.577 158.637 160.781 158.637H160.804C161.002 158.643 161.18 158.726 161.308 158.856C161.442 158.993 161.525 159.177 161.522 159.38L161.497 161.969C161.49 162.166 161.404 162.344 161.273 162.471C161.139 162.604 160.951 162.684 160.746 162.684H160.724C160.526 162.677 160.347 162.595 160.219 162.465C160.085 162.328 160.002 162.144 160.005 161.94L160.031 159.374ZM175.569 167.249C174.994 167.684 174.381 168.122 173.557 168.249C172.733 168.376 171.721 168.183 170.377 167.334C168.572 166.194 167.998 166.715 167.372 167.293L167.356 167.306C167.027 167.611 166.685 167.925 166.251 168.167C165.807 168.415 165.271 168.583 164.572 168.58C163.93 168.58 163.476 168.43 163.119 168.205C162.764 167.979 162.515 167.693 162.263 167.404L162.244 167.379C162.097 167.211 161.95 167.042 161.765 166.918C161.576 166.791 161.34 166.699 161.011 166.683C160.855 166.677 160.698 166.696 160.542 166.734C160.379 166.775 160.216 166.842 160.05 166.921C159.862 167.014 159.676 167.128 159.488 167.255C159.296 167.385 159.102 167.531 158.907 167.684C158.623 167.906 158.294 168.065 157.936 168.164C157.566 168.268 157.167 168.313 156.768 168.297C156.372 168.281 155.969 168.208 155.596 168.078C155.232 167.954 154.887 167.776 154.596 167.55C154.178 167.23 153.824 167.001 153.514 166.858C153.22 166.721 152.977 166.661 152.763 166.664C152.585 166.667 152.412 166.725 152.237 166.829C152.048 166.941 151.86 167.103 151.662 167.303C151.327 167.639 151.001 167.89 150.685 168.071C150.365 168.253 150.056 168.357 149.752 168.408C149.149 168.535 148.577 168.443 148.025 168.24C147.488 168.043 146.974 167.741 146.46 167.442C145.812 167.064 145.129 166.823 144.509 166.785C144.152 166.763 143.816 166.807 143.529 166.937C143.248 167.064 143.008 167.271 142.83 167.57C142.648 167.878 142.529 168.287 142.494 168.815C142.469 169.225 142.568 169.555 142.769 169.79C142.973 170.028 143.286 170.178 143.692 170.225H178.174C178.493 169.895 178.679 169.383 178.73 168.847C178.784 168.265 178.675 167.668 178.394 167.258C178.136 166.88 177.756 166.731 177.341 166.721C176.76 166.712 176.099 166.96 175.569 167.249ZM160.459 144.31C160.58 144.145 160.756 144.043 160.947 144.011C161.136 143.983 161.337 144.024 161.503 144.142C161.669 144.262 161.771 144.437 161.803 144.628C161.832 144.815 161.79 145.015 161.672 145.18C161.257 145.749 161.123 146.314 161.126 146.88C161.129 147.458 161.279 148.049 161.426 148.633C161.608 149.351 161.787 150.063 161.774 150.797C161.762 151.546 161.554 152.306 160.954 153.09C160.829 153.252 160.65 153.351 160.459 153.376C160.27 153.402 160.069 153.354 159.906 153.23C159.744 153.106 159.645 152.928 159.619 152.738C159.593 152.55 159.641 152.35 159.766 152.188C160.146 151.693 160.27 151.181 160.264 150.66C160.258 150.123 160.117 149.561 159.973 148.992C159.788 148.265 159.603 147.528 159.616 146.753C159.622 145.968 159.836 145.158 160.459 144.31ZM176.108 171.81H145.298L147.051 176.147H174.109L176.108 171.81Z" fill="#CBBCB1"/>
<g clip-path="url(#clip0_74_357)">
<path fill-rule="evenodd" clip-rule="evenodd" d="M135.767 94H185.596C189.389 94 192.826 95.5527 195.322 98.0609C197.818 100.569 199.364 104.022 199.364 107.833V213.591C199.364 217.402 197.818 220.855 195.322 223.363C192.826 225.872 189.389 227.424 185.596 227.424H135.767C131.974 227.424 128.538 225.872 126.042 223.363C123.545 220.855 122 217.402 122 213.591V107.833C122 104.022 123.545 100.569 126.042 98.0609C128.538 95.5527 131.985 94 135.767 94ZM160.676 210.377C163.789 210.377 166.317 212.918 166.317 216.045C166.317 219.172 163.789 221.713 160.676 221.713C157.564 221.713 155.035 219.172 155.035 216.045C155.046 212.918 157.564 210.377 160.676 210.377ZM125.955 206.034H195.419V115.39H125.955V206.034Z" fill="#CBBCB1"/>
</g>
<defs>
<clipPath id="clip0_74_357">
<rect width="77.3636" height="133.424" fill="white" transform="translate(122 94)"/>
</clipPath>
</defs>
</svg>
